<svg width="135" height="36" viewBox="0 0 135 36" fill="none" xmlns="http://www.w3.org/2000/svg">
<circle cx="12" cy="18" r="5" fill="#2D68FF"/>
<circle cx="12" cy="6" r="5" fill="#2D68FF"/>
<circle cx="12" cy="30" r="5" fill="#2D68FF"/>
<circle cx="24" cy="12" r="5" fill="#2D68FF"/>
<circle cx="24" cy="24" r="5" fill="#2D68FF"/>
<path d="M127.84 22.1842C127.852 22.1842 127.863 22.1748 127.864 22.1623C127.952 21.5124 128.062 20.9893 128.258 20.3802L129.951 15.0098C130.017 14.8017 130.21 14.6602 130.428 14.6602H132.678C133.029 14.6602 133.271 15.0117 133.145 15.3391L127.897 29.0351C127.822 29.2285 127.637 29.3562 127.43 29.3562H125.132C124.77 29.3562 124.528 28.9841 124.675 28.6535L126.171 25.2781C126.225 25.1565 126.228 25.0185 126.18 24.8945L122.472 15.3411C122.345 15.0134 122.586 14.6602 122.938 14.6602H125.251C125.469 14.6602 125.662 14.8017 125.728 15.0098L127.422 20.3802C127.617 20.9893 127.727 21.5124 127.815 22.1623C127.816 22.1748 127.827 22.1842 127.84 22.1842Z" fill="#1B1B1B"/>
<path d="M115.813 19.06C115.813 16.574 117.221 14.418 120.345 14.418C120.754 14.418 121.09 14.4422 121.443 14.5088C121.666 14.551 121.819 14.7527 121.819 14.9803V16.785C121.819 17.0752 121.573 17.3048 121.283 17.3011C121.194 17.3 121.121 17.3 121.071 17.3C119.465 17.3 118.849 18.026 118.849 19.302V24.5C118.849 24.7761 118.626 25 118.349 25H116.313C116.037 25 115.813 24.7761 115.813 24.5V19.06Z" fill="#1B1B1B"/>
<path d="M109.364 19.06C109.364 16.574 110.772 14.418 113.896 14.418C114.304 14.418 114.64 14.4422 114.993 14.5088C115.216 14.551 115.37 14.7527 115.37 14.9803V16.785C115.37 17.0752 115.123 17.3048 114.833 17.3011C114.744 17.3 114.671 17.3 114.622 17.3C113.016 17.3 112.4 18.026 112.4 19.302V24.5C112.4 24.7761 112.176 25 111.9 25H109.864C109.587 25 109.364 24.7761 109.364 24.5V19.06Z" fill="#1B1B1B"/>
<path d="M102.672 25.242C99.3935 25.242 97.2595 22.932 97.2595 19.83C97.2595 16.75 99.4595 14.418 102.584 14.418C105.708 14.418 107.864 16.75 107.864 19.83L107.852 20.3311C107.846 20.6028 107.624 20.82 107.353 20.82H100.076C100.406 22.14 101.33 22.8 102.606 22.8C103.772 22.8 104.388 22.514 104.806 21.876H106.899C107.229 21.876 107.47 22.1919 107.339 22.4951C106.5 24.442 104.531 25.242 102.672 25.242ZM100.054 18.796H105.092C104.894 17.674 103.838 16.882 102.584 16.882C101.264 16.882 100.34 17.652 100.054 18.796Z" fill="#1B1B1B"/>
<path d="M90.8926 25.2421C87.7246 25.2421 85.3706 22.9321 85.3706 19.5881V10.4961C85.3706 10.22 85.5945 9.99609 85.8706 9.99609H87.9066C88.1827 9.99609 88.4066 10.22 88.4066 10.4961V15.9141C89.0446 14.9681 90.1006 14.4181 91.5086 14.4181C94.1266 14.4181 96.3266 16.5301 96.3266 19.8301C96.3266 22.9101 94.0606 25.2421 90.8926 25.2421ZM90.8926 22.6241C92.3006 22.6241 93.3346 21.4801 93.3346 19.8301C93.3346 18.1801 92.3006 17.0361 90.8926 17.0361C89.6826 17.0361 88.3626 17.8721 88.3626 19.8301C88.3626 21.4801 89.4406 22.6241 90.8926 22.6241Z" fill="#1B1B1B"/>
<path d="M78.3824 14.2641C78.3824 11.2061 80.0544 9.82007 82.3644 9.82007C82.7315 9.82007 83.1239 9.85804 83.5416 9.92438C83.7784 9.96198 83.9484 10.1693 83.9484 10.4091V11.8574C83.9484 12.1554 83.6895 12.3799 83.3916 12.373C83.3646 12.3724 83.3375 12.3721 83.3104 12.3721C81.9904 12.3721 81.4184 13.0101 81.4184 14.1321V14.1601C81.4184 14.4362 81.6423 14.6601 81.9184 14.6601H83.8664C84.1425 14.6601 84.3664 14.8839 84.3664 15.1601V16.5361C84.3664 16.8122 84.1425 17.0361 83.8664 17.0361H81.9184C81.6423 17.0361 81.4184 17.2599 81.4184 17.5361V24.5001C81.4184 24.7762 81.1945 25.0001 80.9184 25.0001H78.8824C78.6063 25.0001 78.3824 24.7762 78.3824 24.5001V17.5361C78.3824 17.2599 78.1585 17.0361 77.8824 17.0361H76.8584C76.5823 17.0361 76.3584 16.8122 76.3584 16.5361V15.1601C76.3584 14.8839 76.5823 14.6601 76.8584 14.6601H77.9864C78.2051 14.6601 78.3824 14.4828 78.3824 14.2641Z" fill="#1B1B1B"/>
<path d="M71.2125 25.242C67.9345 25.242 65.8005 22.932 65.8005 19.83C65.8005 16.75 68.0005 14.418 71.1245 14.418C74.2485 14.418 76.4045 16.75 76.4045 19.83L76.3934 20.3311C76.3874 20.6028 76.1653 20.82 75.8935 20.82H68.6165C68.9465 22.14 69.8705 22.8 71.1465 22.8C72.1712 22.8 72.7712 22.5791 73.1852 22.0925C73.2945 21.9641 73.4481 21.876 73.6167 21.876H75.4403C75.7705 21.876 76.0106 22.1919 75.88 22.4951C75.0414 24.442 73.0725 25.242 71.2125 25.242ZM68.5945 18.796H73.6325C73.4345 17.674 72.3785 16.882 71.1245 16.882C69.8045 16.882 68.8805 17.652 68.5945 18.796Z" fill="#1B1B1B"/>
<path d="M61.7854 25.0002C61.5093 25.0002 61.2854 24.7763 61.2854 24.5002V15.1602C61.2854 14.884 61.5093 14.6602 61.7854 14.6602H63.8214C64.0975 14.6602 64.3214 14.884 64.3214 15.1602V24.5002C64.3214 24.7763 64.0975 25.0002 63.8214 25.0002H61.7854Z" fill="#1B1B1B"/>
<path d="M53.8574 19.06C53.8574 16.574 55.2654 14.418 58.3894 14.418C58.7979 14.418 59.1336 14.4422 59.4867 14.5088C59.7103 14.551 59.8634 14.7527 59.8634 14.9803V16.785C59.8634 17.0752 59.617 17.3048 59.3269 17.3011C59.2381 17.3 59.1646 17.3 59.1154 17.3C57.5094 17.3 56.8934 18.026 56.8934 19.302V24.5C56.8934 24.7761 56.6696 25 56.3934 25H54.3574C54.0813 25 53.8574 24.7761 53.8574 24.5V19.06Z" fill="#1B1B1B"/>
<path d="M46.9185 25.2421C43.7505 25.2421 41.3965 22.9321 41.3965 19.5881V10.4961C41.3965 10.22 41.6203 9.99609 41.8965 9.99609H43.9325C44.2086 9.99609 44.4325 10.22 44.4325 10.4961V15.9141C45.0705 14.9681 46.1265 14.4181 47.5345 14.4181C50.1525 14.4181 52.3525 16.5301 52.3525 19.8301C52.3525 22.9101 50.0865 25.2421 46.9185 25.2421ZM46.9185 22.6241C48.3265 22.6241 49.3605 21.4801 49.3605 19.8301C49.3605 18.1801 48.3265 17.0361 46.9185 17.0361C45.7085 17.0361 44.3885 17.8721 44.3885 19.8301C44.3885 21.4801 45.4665 22.6241 46.9185 22.6241Z" fill="#1B1B1B"/>
</svg>
